<svg xmlns="http://www.w3.org/2000/svg" viewBox="0 0 300 300">
  <defs>
    <linearGradient id="phoneGrad" x1="0%" y1="0%" x2="100%" y2="100%">
      <stop offset="0%" stop-color="#1e293b"/>
      <stop offset="100%" stop-color="#334155"/>
    </linearGradient>
    <linearGradient id="screenGrad" x1="0%" y1="0%" x2="100%" y2="100%">
      <stop offset="0%" stop-color="#0f172a"/>
      <stop offset="100%" stop-color="#1e293b"/>
    </linearGradient>
  </defs>
  
  <!-- Телефон -->
  <rect x="80" y="40" width="140" height="220" rx="25" fill="url(#phoneGrad)" stroke="#475569" stroke-width="2"/>
  
  <!-- Экран -->
  <rect x="90" y="60" width="120" height="180" rx="15" fill="url(#screenGrad)"/>
  
  <!-- Динамик -->
  <rect x="120" y="50" width="60" height="8" rx="4" fill="#64748b"/>
  
  <!-- Камера -->
  <circle cx="150" cy="80" r="8" fill="#1e293b"/>
  <circle cx="150" cy="80" r="5" fill="#0f172a"/>
  
  <!-- Кнопка домой -->
  <rect x="140" y="250" width="20" height="4" rx="2" fill="#64748b"/>
  
  <!-- Иконки на экране -->
  <rect x="100" y="100" width="20" height="20" rx="4" fill="#3b82f6"/>
  <rect x="130" y="100" width="20" height="20" rx="4" fill="#10b981"/>
  <rect x="160" y="100" width="20" height="20" rx="4" fill="#f59e0b"/>
  <rect x="190" y="100" width="20" height="20" rx="4" fill="#ef4444"/>
  
  <rect x="100" y="130" width="20" height="20" rx="4" fill="#8b5cf6"/>
  <rect x="130" y="130" width="20" height="20" rx="4" fill="#06b6d4"/>
  <rect x="160" y="130" width="20" height="20" rx="4" fill="#f97316"/>
  <rect x="190" y="130" width="20" height="20" rx="4" fill="#84cc16"/>
  
  <!-- Время -->
  <text x="150" y="180" text-anchor="middle" fill="white" font-family="Arial" font-size="12" font-weight="bold">14:30</text>
</svg>

