<svg xmlns="http://www.w3.org/2000/svg" viewBox="0 0 300 300">
  <defs>
    <linearGradient id="laptopGrad" x1="0%" y1="0%" x2="100%" y2="100%">
      <stop offset="0%" stop-color="#f8fafc"/>
      <stop offset="100%" stop-color="#e2e8f0"/>
    </linearGradient>
    <linearGradient id="screenGrad2" x1="0%" y1="0%" x2="100%" y2="100%">
      <stop offset="0%" stop-color="#0f172a"/>
      <stop offset="100%" stop-color="#1e293b"/>
    </linearGradient>
  </defs>
  
  <!-- Основание ноутбука -->
  <rect x="40" y="180" width="220" height="20" rx="4" fill="url(#laptopGrad)" stroke="#cbd5e1" stroke-width="1"/>
  
  <!-- Экран -->
  <rect x="50" y="60" width="200" height="130" rx="8" fill="url(#screenGrad2)" stroke="#475569" stroke-width="2"/>
  
  <!-- Клавиатура -->
  <rect x="60" y="190" width="180" height="8" rx="2" fill="#64748b"/>
  
  <!-- Тачпад -->
  <rect x="120" y="200" width="60" height="40" rx="4" fill="#94a3b8"/>
  
  <!-- Логотип Apple -->
  <path d="M150 80 Q145 75 150 75 Q155 75 150 80 Q150 85 150 80" fill="white"/>
  <path d="M150 80 Q155 75 150 75 Q145 75 150 80" fill="white"/>
  
  <!-- Иконки на экране -->
  <rect x="70" y="100" width="30" height="20" rx="3" fill="#3b82f6"/>
  <rect x="110" y="100" width="30" height="20" rx="3" fill="#10b981"/>
  <rect x="150" y="100" width="30" height="20" rx="3" fill="#f59e0b"/>
  <rect x="190" y="100" width="30" height="20" rx="3" fill="#ef4444"/>
  
  <!-- Панель задач -->
  <rect x="60" y="160" width="180" height="20" fill="#1e293b"/>
  <circle cx="80" cy="170" r="3" fill="#10b981"/>
  <circle cx="100" cy="170" r="3" fill="#3b82f6"/>
  <circle cx="120" cy="170" r="3" fill="#f59e0b"/>
</svg>

