<svg xmlns="http://www.w3.org/2000/svg" viewBox="0 0 300 300">
  <defs>
    <linearGradient id="samsungGrad" x1="0%" y1="0%" x2="100%" y2="100%">
      <stop offset="0%" stop-color="#1e40af"/>
      <stop offset="100%" stop-color="#3b82f6"/>
    </linearGradient>
    <linearGradient id="screenGrad3" x1="0%" y1="0%" x2="100%" y2="100%">
      <stop offset="0%" stop-color="#0f172a"/>
      <stop offset="100%" stop-color="#1e293b"/>
    </linearGradient>
  </defs>
  
  <!-- Телефон Samsung -->
  <rect x="70" y="30" width="160" height="240" rx="30" fill="url(#samsungGrad)" stroke="#1d4ed8" stroke-width="2"/>
  
  <!-- Экран -->
  <rect x="80" y="50" width="140" height="200" rx="20" fill="url(#screenGrad3)"/>
  
  <!-- Динамик -->
  <rect x="120" y="40" width="80" height="6" rx="3" fill="#64748b"/>
  
  <!-- Камера -->
  <circle cx="150" cy="70" r="10" fill="#1e293b"/>
  <circle cx="150" cy="70" r="6" fill="#0f172a"/>
  
  <!-- Кнопки -->
  <rect x="60" y="120" width="6" height="30" rx="3" fill="#64748b"/>
  <rect x="60" y="160" width="6" height="30" rx="3" fill="#64748b"/>
  
  <!-- Иконки на экране -->
  <rect x="90" y="90" width="25" height="25" rx="5" fill="#3b82f6"/>
  <rect x="125" y="90" width="25" height="25" rx="5" fill="#10b981"/>
  <rect x="160" y="90" width="25" height="25" rx="5" fill="#f59e0b"/>
  <rect x="195" y="90" width="25" height="25" rx="5" fill="#ef4444"/>
  
  <rect x="90" y="125" width="25" height="25" rx="5" fill="#8b5cf6"/>
  <rect x="125" y="125" width="25" height="25" rx="5" fill="#06b6d4"/>
  <rect x="160" y="125" width="25" height="25" rx="5" fill="#f97316"/>
  <rect x="195" y="125" width="25" height="25" rx="5" fill="#84cc16"/>
  
  <!-- Время -->
  <text x="150" y="180" text-anchor="middle" fill="white" font-family="Arial" font-size="14" font-weight="bold">15:42</text>
  
  <!-- Логотип Samsung -->
  <text x="150" y="220" text-anchor="middle" fill="white" font-family="Arial" font-size="8" font-weight="bold">SAMSUNG</text>
</svg>
