<svg xmlns="http://www.w3.org/2000/svg" viewBox="0 0 300 300">
  <defs>
    <linearGradient id="xiaomiGrad" x1="0%" y1="0%" x2="100%" y2="100%">
      <stop offset="0%" stop-color="#f59e0b"/>
      <stop offset="100%" stop-color="#d97706"/>
    </linearGradient>
    <linearGradient id="screenGrad6" x1="0%" y1="0%" x2="100%" y2="100%">
      <stop offset="0%" stop-color="#0f172a"/>
      <stop offset="100%" stop-color="#1e293b"/>
    </linearGradient>
  </defs>
  
  <!-- Телефон Xiaomi -->
  <rect x="75" y="35" width="150" height="230" rx="25" fill="url(#xiaomiGrad)" stroke="#b45309" stroke-width="2"/>
  
  <!-- Экран -->
  <rect x="85" y="55" width="130" height="190" rx="20" fill="url(#screenGrad6)"/>
  
  <!-- Динамик -->
  <rect x="120" y="45" width="60" height="8" rx="4" fill="#64748b"/>
  
  <!-- Камера -->
  <circle cx="150" cy="75" r="8" fill="#1e293b"/>
  <circle cx="150" cy="75" r="5" fill="#0f172a"/>
  
  <!-- Кнопки -->
  <rect x="65" y="120" width="6" height="25" rx="3" fill="#64748b"/>
  <rect x="65" y="155" width="6" height="25" rx="3" fill="#64748b"/>
  
  <!-- Иконки на экране -->
  <rect x="95" y="95" width="25" height="25" rx="5" fill="#3b82f6"/>
  <rect x="130" y="95" width="25" height="25" rx="5" fill="#10b981"/>
  <rect x="165" y="95" width="25" height="25" rx="5" fill="#f59e0b"/>
  <rect x="200" y="95" width="25" height="25" rx="5" fill="#ef4444"/>
  
  <rect x="95" y="130" width="25" height="25" rx="5" fill="#8b5cf6"/>
  <rect x="130" y="130" width="25" height="25" rx="5" fill="#06b6d4"/>
  <rect x="165" y="130" width="25" height="25" rx="5" fill="#f97316"/>
  <rect x="200" y="130" width="25" height="25" rx="5" fill="#84cc16"/>
  
  <!-- Время -->
  <text x="150" y="180" text-anchor="middle" fill="white" font-family="Arial" font-size="12" font-weight="bold">16:15</text>
  
  <!-- Логотип Xiaomi -->
  <text x="150" y="220" text-anchor="middle" fill="white" font-family="Arial" font-size="8" font-weight="bold">XIAOMI</text>
</svg>


